<?xml version="1.0" encoding="UTF-8" standalone="no"?>
<svg
   xmlns:dc="http://purl.org/dc/elements/1.1/"
   xmlns:cc="http://creativecommons.org/ns#"
   xmlns:rdf="http://www.w3.org/1999/02/22-rdf-syntax-ns#"
   xmlns:svg="http://www.w3.org/2000/svg"
   xmlns="http://www.w3.org/2000/svg"
   xmlns:sodipodi="http://sodipodi.sourceforge.net/DTD/sodipodi-0.dtd"
   xmlns:inkscape="http://www.inkscape.org/namespaces/inkscape"
   width="38.602707mm"
   height="10.186459mm"
   viewBox="0 0 38.602707 10.186459"
   version="1.1"
   id="svg8"
   inkscape:version="1.0.1 (c497b03c, 2020-09-10)"
   sodipodi:docname="drawing.svg">
  <defs
     id="defs2" />
  <sodipodi:namedview
     id="base"
     pagecolor="#ffffff"
     bordercolor="#666666"
     borderopacity="1.0"
     inkscape:pageopacity="0.0"
     inkscape:pageshadow="2"
     inkscape:zoom="5.7125526"
     inkscape:cx="118.40666"
     inkscape:cy="14.384029"
     inkscape:document-units="mm"
     inkscape:current-layer="layer1"
     inkscape:document-rotation="0"
     showgrid="false"
     inkscape:window-width="1252"
     inkscape:window-height="943"
     inkscape:window-x="2005"
     inkscape:window-y="91"
     inkscape:window-maximized="0"
     fit-margin-top="0"
     fit-margin-left="0"
     fit-margin-right="0"
     fit-margin-bottom="0" />
  <metadata
     id="metadata5">
    <rdf:RDF>
      <cc:Work
         rdf:about="">
        <dc:format>image/svg+xml</dc:format>
        <dc:type
           rdf:resource="http://purl.org/dc/dcmitype/StillImage" />
        <dc:title></dc:title>
      </cc:Work>
    </rdf:RDF>
  </metadata>
  <g
     inkscape:label="Layer 1"
     inkscape:groupmode="layer"
     id="layer1"
     transform="translate(-51.00885,-58.347587)">
    <path
       class="st0"
       d="m 54.739475,64.803421 h -3.33375 c -0.211666,0 -0.396875,-0.185209 -0.396875,-0.396875 v -1.931459 c 0,-0.211666 0.185209,-0.396875 0.396875,-0.396875 h 3.33375 c 0.211667,0 0.396875,0.185209 0.396875,0.396875 v 1.931459 c 0,0.211666 -0.185208,0.396875 -0.396875,0.396875"
       id="path40"
       style="stroke-width:0.264583" />
    <path
       class="st1"
       d="m 57.914475,61.072796 h -6.50875 c -0.211666,0 -0.396875,-0.185209 -0.396875,-0.396875 v -1.931459 c 0,-0.211666 0.185209,-0.396875 0.396875,-0.396875 h 6.50875 c 0.211667,0 0.396875,0.185209 0.396875,0.396875 v 1.931459 c 0,0.211666 -0.185208,0.396875 -0.396875,0.396875"
       id="path42"
       style="stroke-width:0.264583" />
    <path
       class="st2"
       d="m 57.914475,68.534045 h -6.50875 c -0.211666,0 -0.396875,-0.185208 -0.396875,-0.396875 v -1.931458 c 0,-0.211666 0.185209,-0.396875 0.396875,-0.396875 h 6.50875 c 0.211667,0 0.396875,0.185209 0.396875,0.396875 v 1.931458 c 0,0.211667 -0.185208,0.396875 -0.396875,0.396875"
       id="path44"
       style="stroke-width:0.264583" />
    <polygon
       class="st3"
       points="271.3,330.3 271.3,337.5 284.8,337.5 284.8,339.4 269.3,339.4 269.3,320.2 284.6,320.2 284.6,322 271.3,322 271.3,328.5 284.1,328.5 284.1,330.3 "
       id="polygon46"
       transform="matrix(0.26458333,0,0,0.26458333,-8.7869821,-25.02262)"
       style="fill:#e6e6e6" />
    <path
       class="st3"
       d="m 67.333642,59.696962 h 2.725208 c 0.211667,0 0.396875,0.02646 0.582084,0.07937 0.185208,0.05292 0.343958,0.132292 0.47625,0.264584 0.132291,0.105833 0.264583,0.264583 0.343958,0.449791 0.07937,0.185209 0.132292,0.423334 0.132292,0.661459 0,0.47625 -0.15875,0.846666 -0.449792,1.11125 -0.291042,0.264583 -0.740833,0.370416 -1.296458,0.370416 h -1.984375 v 2.143125 h -0.529167 z m 0.529167,2.460625 H 69.9001 c 0.423334,0 0.714375,-0.07937 0.873125,-0.264583 0.15875,-0.185208 0.264584,-0.423333 0.264584,-0.740833 0,-0.370417 -0.07937,-0.608542 -0.264584,-0.767292 -0.185208,-0.15875 -0.423333,-0.211667 -0.767291,-0.211667 h -2.143125 z"
       id="path48"
       style="stroke-width:0.264583;fill:#e6e6e6" />
    <rect
       x="72.334267"
       y="59.696964"
       class="st3"
       width="0.52916664"
       height="5.0799999"
       id="rect50"
       style="stroke-width:0.264583;fill:#e6e6e6" />
    <path
       class="st3"
       d="m 77.731767,64.776962 h -3.96875 c 0.02646,-0.185208 0.05292,-0.343958 0.105833,-0.502708 0.05292,-0.15875 0.132292,-0.291042 0.264584,-0.47625 0.132291,-0.15875 0.291041,-0.343958 0.529166,-0.529167 0.238125,-0.185208 0.529167,-0.370416 0.899584,-0.582083 0.317499,-0.15875 0.582083,-0.3175 0.767291,-0.423333 0.185208,-0.105834 0.343958,-0.238125 0.47625,-0.343959 0.132292,-0.105833 0.211667,-0.238125 0.264583,-0.370416 0.05292,-0.132292 0.07937,-0.291042 0.07937,-0.449792 0,-0.370417 -0.105833,-0.635 -0.343958,-0.820208 -0.238125,-0.185209 -0.555625,-0.291042 -0.9525,-0.291042 -0.291041,0 -0.502708,0.02646 -0.687916,0.105833 -0.185209,0.07937 -0.343959,0.185209 -0.449792,0.3175 -0.105833,0.132292 -0.185208,0.264584 -0.211667,0.449792 -0.05292,0.15875 -0.05292,0.343958 -0.07937,0.529167 H 73.86885 c 0,-0.635 0.185209,-1.084792 0.529167,-1.402292 0.343958,-0.291042 0.820208,-0.449792 1.455208,-0.449792 0.343958,0 0.608542,0.05292 0.846667,0.132292 0.238125,0.07937 0.423333,0.211667 0.582083,0.370417 0.132292,0.15875 0.238125,0.3175 0.3175,0.502708 0.05292,0.185208 0.105833,0.370417 0.105833,0.582083 0,0.211667 -0.02646,0.396875 -0.105833,0.582084 -0.05292,0.15875 -0.15875,0.3175 -0.264583,0.423333 -0.105834,0.132292 -0.238125,0.238125 -0.396875,0.343958 -0.132292,0.105834 -0.3175,0.211667 -0.529167,0.3175 -0.396875,0.211667 -0.714375,0.396875 -0.926041,0.529167 -0.211667,0.132292 -0.396875,0.238125 -0.555625,0.343958 -0.132292,0.105834 -0.264584,0.211667 -0.343959,0.291042 -0.07937,0.105833 -0.132291,0.185208 -0.15875,0.3175 h 3.307292 z"
       id="path52"
       style="stroke-width:0.264583;fill:#e6e6e6" />
    <polygon
       class="st3"
       points="340.9,339.4 332.5,322.8 332.4,322.8 332.4,339.4 330.4,339.4 330.4,320.2 333.3,320.2 341.9,336.9 350.4,320.2 353.2,320.2 353.2,339.4 351.3,339.4 351.3,322.8 351.2,322.8 342.7,339.4 "
       id="polygon54"
       transform="matrix(0.26458333,0,0,0.26458333,-8.7869821,-25.02262)"
       style="fill:#e6e6e6" />
    <polygon
       class="st3"
       points="371.2,328.5 358.4,328.5 358.4,322 371.6,322 371.6,320.2 356.4,320.2 356.4,339.4 371.9,339.4 371.9,337.5 358.4,337.5 358.4,330.3 371.2,330.3 "
       id="polygon56"
       transform="matrix(0.26458333,0,0,0.26458333,-8.7869821,-25.02262)"
       style="fill:#e6e6e6" />
    <polygon
       class="st3"
       points="270,343.4 270,348.5 273.6,348.5 273.6,349 269.4,349 269.4,343.4 "
       id="polygon58"
       transform="matrix(0.26458333,0,0,0.26458333,-8.7869821,-25.02262)" />
    <polygon
       class="st3"
       points="270,343.4 270,348.5 273.6,348.5 273.6,349 269.4,349 269.4,343.4 "
       id="polygon60"
       transform="matrix(0.26458333,0,0,0.26458333,-8.7869821,-25.02262)"
       style="fill:#e6e6e6" />
    <path
       class="st3"
       d="m 64.581975,66.734879 c -0.02646,0 -0.02646,0.02646 -0.05292,0.02646 -0.02646,0 -0.05292,0.02646 -0.07937,0.02646 -0.02646,0 -0.07937,0 -0.132292,0.02646 -0.05292,0 -0.132292,0 -0.185208,0.02646 -0.07937,0 -0.15875,0.02646 -0.211667,0.05292 -0.05292,0.02646 -0.07937,0.07937 -0.07937,0.132292 0,0.05292 0,0.07937 0.02646,0.105833 0.02646,0.02646 0.05292,0.05292 0.07937,0.07937 0.02646,0.02646 0.05292,0.02646 0.105834,0.02646 0.02646,0 0.07937,0 0.132291,0 0.05292,0 0.105834,0 0.15875,-0.02646 0.05292,-0.02646 0.105834,-0.02646 0.15875,-0.05292 0.05292,-0.02646 0.07937,-0.05292 0.105834,-0.105833 0.02646,-0.05292 0.05292,-0.07937 0.05292,-0.15875 v -0.15875 z m -0.899583,-0.15875 c 0,-0.05292 0.02646,-0.105833 0.02646,-0.15875 0.02646,-0.05292 0.05292,-0.07937 0.07937,-0.105833 0.05292,-0.02646 0.07938,-0.05292 0.15875,-0.07938 0.05292,-0.02646 0.132292,-0.02646 0.238125,-0.02646 0.07937,0 0.15875,0 0.238125,0.02646 0.05292,0.02646 0.105834,0.02646 0.15875,0.05292 0.05292,0.02646 0.07937,0.05292 0.07937,0.105834 0.02646,0.05292 0.02646,0.07937 0.02646,0.132291 v 0.582084 c 0,0.05292 0,0.07937 0.02646,0.105833 0.02646,0.02646 0.02646,0.02646 0.07937,0.02646 0.02646,0 0.02646,0 0.05292,0 0.02646,0 0.02646,0 0.05292,0 v 0.105834 c -0.02646,0 -0.02646,0 -0.05292,0 -0.02646,0 -0.05292,0 -0.07937,0 -0.02646,0 -0.07937,0 -0.07937,-0.02646 -0.02646,0 -0.02646,-0.02646 -0.05292,-0.05292 0,-0.02646 -0.02646,-0.05292 -0.02646,-0.05292 0,-0.02646 0,-0.05292 0,-0.07937 v 0 c 0,0.02646 -0.02646,0.02646 -0.05292,0.05292 -0.02646,0.02646 -0.05292,0.05292 -0.07937,0.07937 -0.02646,0.02646 -0.07937,0.05292 -0.15875,0.05292 -0.05292,0.02646 -0.132292,0.02646 -0.211667,0.02646 -0.05292,0 -0.105833,0 -0.132291,-0.02646 -0.05292,0 -0.105834,-0.02646 -0.132292,-0.05292 -0.05292,-0.02646 -0.07937,-0.05292 -0.105833,-0.105834 -0.02646,-0.05292 -0.05292,-0.105833 -0.05292,-0.15875 0,-0.07937 0.02646,-0.132291 0.05292,-0.185208 0.02646,-0.05292 0.07937,-0.07937 0.132291,-0.105833 0.05292,-0.02646 0.105834,-0.05292 0.185209,-0.05292 0.05292,0 0.132291,-0.02646 0.185208,-0.02646 0.07937,0 0.15875,0 0.211667,-0.02646 0.05292,0 0.07937,-0.02646 0.105833,-0.02646 0.02646,0 0.05292,-0.02646 0.05292,-0.05292 0,-0.02646 0,-0.02646 0,-0.05292 0,-0.07937 -0.02646,-0.132292 -0.07937,-0.15875 -0.05292,-0.02646 -0.15875,-0.05292 -0.264584,-0.05292 -0.132291,0 -0.211666,0.02646 -0.264583,0.05292 -0.05292,0.02646 -0.105833,0.105833 -0.105833,0.185208 H 63.6824 Z"
       id="path62"
       style="stroke-width:0.264583" />
    <path
       class="st3"
       d="m 64.581975,66.734879 c -0.02646,0 -0.02646,0.02646 -0.05292,0.02646 -0.02646,0 -0.05292,0.02646 -0.07937,0.02646 -0.02646,0 -0.07937,0 -0.132292,0.02646 -0.05292,0 -0.132292,0 -0.185208,0.02646 -0.07937,0 -0.15875,0.02646 -0.211667,0.05292 -0.05292,0.02646 -0.07937,0.07937 -0.07937,0.132292 0,0.05292 0,0.07937 0.02646,0.105833 0.02646,0.02646 0.05292,0.05292 0.07937,0.07937 0.02646,0.02646 0.05292,0.02646 0.105834,0.02646 0.02646,0 0.07937,0 0.132291,0 0.05292,0 0.105834,0 0.15875,-0.02646 0.05292,-0.02646 0.105834,-0.02646 0.15875,-0.05292 0.05292,-0.02646 0.07937,-0.05292 0.105834,-0.105833 0.02646,-0.05292 0.05292,-0.07937 0.05292,-0.15875 v -0.15875 z m -0.899583,-0.15875 c 0,-0.05292 0.02646,-0.105833 0.02646,-0.15875 0.02646,-0.05292 0.05292,-0.07937 0.07937,-0.105833 0.05292,-0.02646 0.07938,-0.05292 0.15875,-0.07938 0.05292,-0.02646 0.132292,-0.02646 0.238125,-0.02646 0.07937,0 0.15875,0 0.238125,0.02646 0.05292,0.02646 0.105834,0.02646 0.15875,0.05292 0.05292,0.02646 0.07937,0.05292 0.07937,0.105834 0.02646,0.05292 0.02646,0.07937 0.02646,0.132291 v 0.582084 c 0,0.05292 0,0.07937 0.02646,0.105833 0.02646,0.02646 0.02646,0.02646 0.07937,0.02646 0.02646,0 0.02646,0 0.05292,0 0.02646,0 0.02646,0 0.05292,0 v 0.105834 c -0.02646,0 -0.02646,0 -0.05292,0 -0.02646,0 -0.05292,0 -0.07937,0 -0.02646,0 -0.07937,0 -0.07937,-0.02646 -0.02646,0 -0.02646,-0.02646 -0.05292,-0.05292 0,-0.02646 -0.02646,-0.05292 -0.02646,-0.05292 0,-0.02646 0,-0.05292 0,-0.07937 v 0 c 0,0.02646 -0.02646,0.02646 -0.05292,0.05292 -0.02646,0.02646 -0.05292,0.05292 -0.07937,0.07937 -0.02646,0.02646 -0.07937,0.05292 -0.15875,0.05292 -0.05292,0.02646 -0.132292,0.02646 -0.211667,0.02646 -0.05292,0 -0.105833,0 -0.132291,-0.02646 -0.05292,0 -0.105834,-0.02646 -0.132292,-0.05292 -0.05292,-0.02646 -0.07937,-0.05292 -0.105833,-0.105834 -0.02646,-0.05292 -0.05292,-0.105833 -0.05292,-0.15875 0,-0.07937 0.02646,-0.132291 0.05292,-0.185208 0.02646,-0.05292 0.07937,-0.07937 0.132291,-0.105833 0.05292,-0.02646 0.105834,-0.05292 0.185209,-0.05292 0.05292,0 0.132291,-0.02646 0.185208,-0.02646 0.07937,0 0.15875,0 0.211667,-0.02646 0.05292,0 0.07937,-0.02646 0.105833,-0.02646 0.02646,0 0.05292,-0.02646 0.05292,-0.05292 0,-0.02646 0,-0.02646 0,-0.05292 0,-0.07937 -0.02646,-0.132292 -0.07937,-0.15875 -0.05292,-0.02646 -0.15875,-0.05292 -0.264584,-0.05292 -0.132291,0 -0.211666,0.02646 -0.264583,0.05292 -0.05292,0.02646 -0.105833,0.105833 -0.105833,0.185208 H 63.6824 Z"
       id="path64"
       style="stroke-width:0.264583;fill:#e6e6e6" />
    <path
       class="st3"
       d="m 65.111142,66.787796 c 0,0.07937 0,0.132291 0.02646,0.185208 0.02646,0.05292 0.05292,0.105833 0.105834,0.132292 0.05292,0.02646 0.07938,0.07937 0.132291,0.07937 0.05292,0.02646 0.105834,0.02646 0.185209,0.02646 0.07937,0 0.15875,-0.02646 0.211666,-0.05292 0.05292,-0.02646 0.105834,-0.05292 0.132292,-0.105833 0.02646,-0.05292 0.05292,-0.07937 0.07937,-0.132292 0.02646,-0.05292 0.02646,-0.105833 0.02646,-0.15875 0,-0.07937 0,-0.132291 -0.02646,-0.185208 -0.02646,-0.05292 -0.05292,-0.105833 -0.105833,-0.132292 -0.05292,-0.02646 -0.07937,-0.07937 -0.132292,-0.07937 -0.05292,-0.02646 -0.105833,-0.02646 -0.185208,-0.02646 -0.07937,0 -0.15875,0 -0.211667,0.02646 -0.05292,0.02646 -0.105833,0.05292 -0.132292,0.105834 -0.02646,0.05292 -0.05292,0.07937 -0.07937,0.132291 0,0.05292 -0.02646,0.132292 -0.02646,0.185209 M 64.97885,65.808837 h 0.15875 v 0.635 0 c 0.02646,-0.02646 0.05292,-0.07937 0.07937,-0.105833 0.02646,-0.02646 0.05292,-0.05292 0.105834,-0.07937 0.02646,-0.02646 0.07937,-0.05292 0.132291,-0.05292 0.05292,-0.02646 0.105834,-0.02646 0.15875,-0.02646 0.105834,0 0.185209,0.02646 0.264584,0.05292 0.07937,0.02646 0.132291,0.07938 0.185208,0.132291 0.05292,0.05292 0.07937,0.105834 0.105833,0.185209 0.02646,0.07937 0.02646,0.132291 0.02646,0.211666 0,0.07937 0,0.132292 -0.02646,0.211667 -0.02646,0.07937 -0.05292,0.132292 -0.105833,0.185208 -0.05292,0.05292 -0.105833,0.105834 -0.185208,0.132292 -0.07937,0.02646 -0.15875,0.05292 -0.291042,0.05292 -0.05292,0 -0.132292,0 -0.185208,-0.02646 -0.05292,-0.02646 -0.105834,-0.02646 -0.132292,-0.05292 -0.02646,-0.02646 -0.07937,-0.05292 -0.07937,-0.07937 -0.02646,-0.02646 -0.02646,-0.05292 -0.05292,-0.07937 v 0 0.211666 h -0.15875 z"
       id="path66"
       style="stroke-width:0.264583" />
    <path
       class="st3"
       d="m 65.111142,66.787796 c 0,0.07937 0,0.132291 0.02646,0.185208 0.02646,0.05292 0.05292,0.105833 0.105834,0.132292 0.05292,0.02646 0.07938,0.07937 0.132291,0.07937 0.05292,0.02646 0.105834,0.02646 0.185209,0.02646 0.07937,0 0.15875,-0.02646 0.211666,-0.05292 0.05292,-0.02646 0.105834,-0.05292 0.132292,-0.105833 0.02646,-0.05292 0.05292,-0.07937 0.07937,-0.132292 0.02646,-0.05292 0.02646,-0.105833 0.02646,-0.15875 0,-0.07937 0,-0.132291 -0.02646,-0.185208 -0.02646,-0.05292 -0.05292,-0.105833 -0.105833,-0.132292 -0.05292,-0.02646 -0.07937,-0.07937 -0.132292,-0.07937 -0.05292,-0.02646 -0.105833,-0.02646 -0.185208,-0.02646 -0.07937,0 -0.15875,0 -0.211667,0.02646 -0.05292,0.02646 -0.105833,0.05292 -0.132292,0.105834 -0.02646,0.05292 -0.05292,0.07937 -0.07937,0.132291 0,0.05292 -0.02646,0.132292 -0.02646,0.185209 z M 64.97885,65.808837 h 0.15875 v 0.635 0 c 0.02646,-0.02646 0.05292,-0.07937 0.07937,-0.105833 0.02646,-0.02646 0.05292,-0.05292 0.105834,-0.07937 0.02646,-0.02646 0.07937,-0.05292 0.132291,-0.05292 0.05292,-0.02646 0.105834,-0.02646 0.15875,-0.02646 0.105834,0 0.185209,0.02646 0.264584,0.05292 0.07937,0.02646 0.132291,0.07938 0.185208,0.132291 0.05292,0.05292 0.07937,0.105834 0.105833,0.185209 0.02646,0.07937 0.02646,0.132291 0.02646,0.211666 0,0.07937 0,0.132292 -0.02646,0.211667 -0.02646,0.07937 -0.05292,0.132292 -0.105833,0.185208 -0.05292,0.05292 -0.105833,0.105834 -0.185208,0.132292 -0.07937,0.02646 -0.15875,0.05292 -0.291042,0.05292 -0.05292,0 -0.132292,0 -0.185208,-0.02646 -0.05292,-0.02646 -0.105834,-0.02646 -0.132292,-0.05292 -0.02646,-0.02646 -0.07937,-0.05292 -0.07937,-0.07937 -0.02646,-0.02646 -0.02646,-0.05292 -0.05292,-0.07937 v 0 0.211666 h -0.15875 z"
       id="path68"
       style="stroke-width:0.264583;fill:#e6e6e6" />
    <path
       class="st3"
       d="m 67.174892,66.549671 c -0.02646,-0.07937 -0.05292,-0.15875 -0.105833,-0.185209 -0.05292,-0.02646 -0.15875,-0.05292 -0.264584,-0.05292 -0.05292,0 -0.07937,0 -0.105833,0 -0.02646,0 -0.07938,0.02646 -0.105833,0.02646 -0.02646,0.02646 -0.05292,0.02646 -0.07937,0.05292 -0.02646,0.02646 -0.02646,0.05292 -0.02646,0.105833 0,0.02646 0,0.05292 0.02646,0.07937 0,0.02646 0.02646,0.02646 0.05292,0.05292 0.02646,0 0.07937,0.02646 0.132292,0.02646 0.05292,0 0.132292,0.02646 0.211667,0.02646 0.07937,0 0.15875,0.02646 0.211666,0.02646 0.05292,0.02646 0.105834,0.02646 0.15875,0.05292 0.02646,0.02646 0.05292,0.05292 0.07937,0.07937 0.02646,0.02646 0.02646,0.07937 0.02646,0.132292 0,0.105833 -0.05292,0.185208 -0.132292,0.264583 -0.07937,0.05292 -0.211667,0.07937 -0.396875,0.07937 -0.185208,0 -0.3175,-0.02646 -0.396875,-0.07937 -0.105833,-0.05292 -0.15875,-0.15875 -0.15875,-0.291041 h 0.132292 c 0,0.05292 0.02646,0.07937 0.02646,0.105833 0.02646,0.02646 0.05292,0.05292 0.07937,0.07937 0.02646,0.02646 0.07937,0.02646 0.132292,0.05292 0.05292,0 0.105833,0 0.185208,0 0.05292,0 0.105833,0 0.15875,0 0.05292,0 0.07937,-0.02646 0.105833,-0.02646 0.02646,-0.02646 0.05292,-0.02646 0.07937,-0.05292 0.02646,-0.02646 0.02646,-0.05292 0.02646,-0.105834 0,-0.02646 0,-0.05292 -0.02646,-0.07937 0,-0.02646 -0.02646,-0.02646 -0.05292,-0.05292 -0.02646,-0.02646 -0.07937,-0.02646 -0.132292,-0.02646 -0.05292,0 -0.132292,-0.02646 -0.211667,-0.02646 -0.07937,0 -0.15875,-0.02646 -0.211666,-0.02646 -0.05292,-0.02646 -0.105834,-0.02646 -0.132292,-0.05292 -0.02646,-0.02646 -0.05292,-0.05292 -0.07937,-0.07938 -0.02646,-0.02646 -0.02646,-0.07937 -0.02646,-0.132292 0,-0.05292 0,-0.07937 0.02646,-0.132291 0.02646,-0.05292 0.05292,-0.07937 0.07937,-0.105834 0.02646,-0.02646 0.07937,-0.05292 0.15875,-0.07937 0.05292,-0.02646 0.132292,-0.02646 0.211667,-0.02646 0.185208,0 0.3175,0.02646 0.396875,0.07937 0.07938,0.05292 0.132291,0.15875 0.132291,0.264583 h -0.185208 z"
       id="path70"
       style="stroke-width:0.264583" />
    <path
       class="st3"
       d="m 67.174892,66.549671 c -0.02646,-0.07937 -0.05292,-0.15875 -0.105833,-0.185209 -0.05292,-0.02646 -0.15875,-0.05292 -0.264584,-0.05292 -0.05292,0 -0.07937,0 -0.105833,0 -0.02646,0 -0.07938,0.02646 -0.105833,0.02646 -0.02646,0.02646 -0.05292,0.02646 -0.07937,0.05292 -0.02646,0.02646 -0.02646,0.05292 -0.02646,0.105833 0,0.02646 0,0.05292 0.02646,0.07937 0,0.02646 0.02646,0.02646 0.05292,0.05292 0.02646,0 0.07937,0.02646 0.132292,0.02646 0.05292,0 0.132292,0.02646 0.211667,0.02646 0.07937,0 0.15875,0.02646 0.211666,0.02646 0.05292,0.02646 0.105834,0.02646 0.15875,0.05292 0.02646,0.02646 0.05292,0.05292 0.07937,0.07937 0.02646,0.02646 0.02646,0.07937 0.02646,0.132292 0,0.105833 -0.05292,0.185208 -0.132292,0.264583 -0.07937,0.05292 -0.211667,0.07937 -0.396875,0.07937 -0.185208,0 -0.3175,-0.02646 -0.396875,-0.07937 -0.105833,-0.05292 -0.15875,-0.15875 -0.15875,-0.291041 h 0.132292 c 0,0.05292 0.02646,0.07937 0.02646,0.105833 0.02646,0.02646 0.05292,0.05292 0.07937,0.07937 0.02646,0.02646 0.07937,0.02646 0.132292,0.05292 0.05292,0 0.105833,0 0.185208,0 0.05292,0 0.105833,0 0.15875,0 0.05292,0 0.07937,-0.02646 0.105833,-0.02646 0.02646,-0.02646 0.05292,-0.02646 0.07937,-0.05292 0.02646,-0.02646 0.02646,-0.05292 0.02646,-0.105834 0,-0.02646 0,-0.05292 -0.02646,-0.07937 0,-0.02646 -0.02646,-0.02646 -0.05292,-0.05292 -0.02646,-0.02646 -0.07937,-0.02646 -0.132292,-0.02646 -0.05292,0 -0.132292,-0.02646 -0.211667,-0.02646 -0.07937,0 -0.15875,-0.02646 -0.211666,-0.02646 -0.05292,-0.02646 -0.105834,-0.02646 -0.132292,-0.05292 -0.02646,-0.02646 -0.05292,-0.05292 -0.07937,-0.07938 -0.02646,-0.02646 -0.02646,-0.07937 -0.02646,-0.132292 0,-0.05292 0,-0.07937 0.02646,-0.132291 0.02646,-0.05292 0.05292,-0.07937 0.07937,-0.105834 0.02646,-0.02646 0.07937,-0.05292 0.15875,-0.07937 0.05292,-0.02646 0.132292,-0.02646 0.211667,-0.02646 0.185208,0 0.3175,0.02646 0.396875,0.07937 0.07938,0.05292 0.132291,0.15875 0.132291,0.264583 h -0.185208 z"
       id="path72"
       style="stroke-width:0.264583;fill:#e6e6e6" />
  </g>
  <style
     type="text/css"
     id="style38">
	.st0{fill:#FECE63;}
	.st1{fill:#69BCB8;}
	.st2{fill:#007BA6;}
	.st3{fill:#4C565C;}
</style>
</svg>
