<svg xmlns="http://www.w3.org/2000/svg" viewBox="-120 70.31 202 45.532">
  <defs>
    <style>
      .cls-1 {
        fill: #fff;
      }

      .cls-2 {
        fill: #6bbcb9;
      }

      .cls-3 {
        fill: #ffcf62;
      }

      .cls-4 {
        fill: #007b9a;
      }
    </style>
  </defs>
  <g id="Group_764" data-name="Group 764" transform="translate(-173.259 21.998)">
    <g id="Group_762" data-name="Group 762" transform="translate(101.381 62.297)">
      <path id="Path_239" data-name="Path 239" class="cls-1" d="M17.731,61.8h2.533V78.807H18.545V64.152h-.09l-7.6,14.655H9.227L1.809,64.152h-.09V78.807H0V61.8H2.533l7.6,14.746Z" transform="translate(0 -61.257)"/>
      <path id="Path_240" data-name="Path 240" class="cls-1" d="M26.4,61.8H39.879v1.628H28.119v5.79H39.427v1.628H28.209v6.332H40.15v1.628H26.4Z" transform="translate(-2.518 -61.257)"/>
      <path id="Path_241" data-name="Path 241" class="cls-1" d="M49.794,63.428H43.1V61.8H58.207v1.628H51.513V78.807H49.794V63.428Z" transform="translate(-4.11 -61.257)"/>
      <path id="Path_242" data-name="Path 242" class="cls-1" d="M61.8,61.8h9.227a16.206,16.206,0,0,1,2.171.181,4.93,4.93,0,0,1,1.719.724,3.108,3.108,0,0,1,1.176,1.447,5.466,5.466,0,0,1,.452,2.171,4.026,4.026,0,0,1-.9,2.623A3.844,3.844,0,0,1,73.2,70.484v.09a3.085,3.085,0,0,1,2.352,1.357,8.791,8.791,0,0,1,.724,3.347,4.057,4.057,0,0,0,.09,1c0,.362.09.724.09,1.086.09.362.09.633.181.9a1.473,1.473,0,0,0,.271.543h-1.9a1.529,1.529,0,0,1-.362-1.086,16.806,16.806,0,0,1-.09-2.352,4.033,4.033,0,0,0-1-3.076,4.893,4.893,0,0,0-3.166-.9H63.609V78.9H61.89V61.8Zm1.719,7.961h7.508a7.031,7.031,0,0,0,1.447-.181,2.8,2.8,0,0,0,1.176-.543,2.212,2.212,0,0,0,.814-1,4.226,4.226,0,0,0,.271-1.538,3.9,3.9,0,0,0-.271-1.538,1.98,1.98,0,0,0-.814-.9,5.534,5.534,0,0,0-1.086-.452,5.973,5.973,0,0,0-1.266-.09H63.7v6.242Z" transform="translate(-5.894 -61.257)"/>
      <path id="Path_243" data-name="Path 243" class="cls-1" d="M81.6,61.8h1.719V78.807H81.6Z" transform="translate(-7.782 -61.257)"/>
      <path id="Path_244" data-name="Path 244" class="cls-1" d="M104.259,72.237a7.252,7.252,0,0,1-.814,2.714,7.923,7.923,0,0,1-1.719,2.171A8.179,8.179,0,0,1,99.1,78.569a9.463,9.463,0,0,1-3.257.543,9.679,9.679,0,0,1-3.709-.633,8.7,8.7,0,0,1-2.895-1.809,8.313,8.313,0,0,1-1.809-2.8,9.679,9.679,0,0,1-.633-3.709,9.189,9.189,0,0,1,.543-3.076,10.284,10.284,0,0,1,1.628-2.895,8.353,8.353,0,0,1,2.8-2.171,10.766,10.766,0,0,1,6.875-.452,10.693,10.693,0,0,1,2.533,1.086,5.456,5.456,0,0,1,1.9,1.9,6.909,6.909,0,0,1,1,2.8H102.36a4.2,4.2,0,0,0-.814-2.081,5.506,5.506,0,0,0-1.447-1.447,6.569,6.569,0,0,0-1.99-.814,9.114,9.114,0,0,0-2.262-.271A6.6,6.6,0,0,0,88.7,70.065a9.544,9.544,0,0,0,.362,2.8,7.385,7.385,0,0,0,1.266,2.352A6.07,6.07,0,0,0,92.59,76.85a8.765,8.765,0,0,0,3.257.543,6.753,6.753,0,0,0,4.523-1.357,6.312,6.312,0,0,0,2.081-3.89h1.809Z" transform="translate(-8.278 -61.2)"/>
      <path id="Path_245" data-name="Path 245" class="cls-1" d="M109.2,61.8h1.719v7.147h12.3V61.8h1.719V78.807h-1.719V70.665h-12.3v8.142H109.2Z" transform="translate(-10.414 -61.257)"/>
      <path id="Path_246" data-name="Path 246" class="cls-1" d="M130.524,66.466a7.9,7.9,0,0,1,1.99-2.8,8.892,8.892,0,0,1,2.985-1.719,11.738,11.738,0,0,1,7.056,0,8.29,8.29,0,0,1,2.985,1.719,6.924,6.924,0,0,1,1.99,2.8,10.284,10.284,0,0,1,.724,3.89,10.637,10.637,0,0,1-.724,3.89,7.905,7.905,0,0,1-1.99,2.8,8.892,8.892,0,0,1-2.985,1.719,11.737,11.737,0,0,1-7.056,0,8.29,8.29,0,0,1-2.985-1.719,6.924,6.924,0,0,1-1.99-2.8,10.284,10.284,0,0,1-.724-3.89A8.547,8.547,0,0,1,130.524,66.466Zm1.719,7.056a5.218,5.218,0,0,0,1.628,2.262,7.612,7.612,0,0,0,2.352,1.357,9.475,9.475,0,0,0,2.714.452,9.578,9.578,0,0,0,2.8-.452,6.162,6.162,0,0,0,2.352-1.357,5.809,5.809,0,0,0,1.628-2.262,8.692,8.692,0,0,0,.633-3.257,7.221,7.221,0,0,0-.633-3.257,5.217,5.217,0,0,0-1.628-2.262,6.161,6.161,0,0,0-2.352-1.357,9.578,9.578,0,0,0-2.8-.452,8.528,8.528,0,0,0-2.714.452,6.161,6.161,0,0,0-2.352,1.357,5.809,5.809,0,0,0-1.628,2.262,8.692,8.692,0,0,0-.633,3.257A10.949,10.949,0,0,0,132.242,73.522Z" transform="translate(-12.378 -61.219)"/>
      <path id="Path_247" data-name="Path 247" class="cls-1" d="M153.4,61.8h9.227a16.2,16.2,0,0,1,2.171.181,4.93,4.93,0,0,1,1.719.724,3.108,3.108,0,0,1,1.176,1.447,5.466,5.466,0,0,1,.452,2.171,4.026,4.026,0,0,1-.9,2.623,3.844,3.844,0,0,1-2.443,1.538v.09a3.085,3.085,0,0,1,2.352,1.357,8.791,8.791,0,0,1,.724,3.347,4.056,4.056,0,0,0,.09,1,4.4,4.4,0,0,1,.09,1.086c.09.362.09.633.181.9a1.473,1.473,0,0,0,.271.543h-1.9a2.128,2.128,0,0,1-.362-1.086,16.807,16.807,0,0,1-.09-2.352,4.033,4.033,0,0,0-1-3.076,4.893,4.893,0,0,0-3.166-.9h-6.785V78.9H153.49V61.8Zm1.809,7.961h7.418a7.031,7.031,0,0,0,1.447-.181,2.8,2.8,0,0,0,1.176-.543,2.212,2.212,0,0,0,.814-1,4.226,4.226,0,0,0,.271-1.538,3.9,3.9,0,0,0-.271-1.538,1.98,1.98,0,0,0-.814-.9,5.533,5.533,0,0,0-1.086-.452,5.973,5.973,0,0,0-1.266-.09h-7.6v6.242Z" transform="translate(-14.629 -61.257)"/>
    </g>
    <g id="Group_763" data-name="Group 763" transform="translate(53.259 48.313)">
      <path id="Path_248" data-name="Path 248" class="cls-2" d="M100.877,21.957a54.675,54.675,0,0,0-2.887-6.441,2.167,2.167,0,0,0-2.443-1.111,50.968,50.968,0,0,1-9.217.777,47.921,47.921,0,0,1-8.884-.777A2.167,2.167,0,0,0,75,15.516a54.676,54.676,0,0,0-2.887,6.441,2.194,2.194,0,0,0,1.444,2.887,49.917,49.917,0,0,0,12.66,1.666,46.753,46.753,0,0,0,12.993-1.666A2.317,2.317,0,0,0,100.877,21.957Z" transform="translate(-71.18 1.586)"/>
      <path id="Path_249" data-name="Path 249" class="cls-3" d="M90.685,12.438A2.344,2.344,0,0,0,92.35,8.884C88.8,3.776,85.687,0,85.687,0h0s-3.11,3.776-6.552,9A2.233,2.233,0,0,0,80.8,12.438c1.444.111,3,.222,4.775.222C87.464,12.66,89.13,12.549,90.685,12.438Z" transform="translate(-70.427)"/>
      <path id="Path_250" data-name="Path 250" class="cls-4" d="M101.844,30.37a2.277,2.277,0,0,0-2.776-2.665,55.105,55.105,0,0,1-12.66,1.444,53.61,53.61,0,0,1-12.327-1.444A2.311,2.311,0,0,0,71.3,30.37c1.444,7.33,7.552,12.1,15.214,12.1C94.293,42.364,100.29,37.7,101.844,30.37Z" transform="translate(-71.259 3.057)"/>
    </g>
  </g>
</svg>
