<?xml version="1.0" encoding="UTF-8" standalone="no"?>
<svg
   viewBox="-120 70.31 45.532001 45.532"
   version="1.1"
   id="svg21"
   sodipodi:docname="metrichor-no-name.svg"
   width="45.532001"
   height="45.532001"
   inkscape:version="1.2 (dc2aeda, 2022-05-15)"
   xmlns:inkscape="http://www.inkscape.org/namespaces/inkscape"
   xmlns:sodipodi="http://sodipodi.sourceforge.net/DTD/sodipodi-0.dtd"
   xmlns="http://www.w3.org/2000/svg"
   xmlns:svg="http://www.w3.org/2000/svg">
  <g
     id="Group_764"
     data-name="Group 764"
     transform="translate(-173.259,21.998)">
    <g
       id="Group_763"
       data-name="Group 763"
       transform="translate(61.259,48.313)">
      <path
         id="Path_248"
         d="M 100.877,21.957 A 54.675,54.675 0 0 0 97.99,15.516 2.167,2.167 0 0 0 95.547,14.405 50.968,50.968 0 0 1 86.33,15.182 47.921,47.921 0 0 1 77.446,14.405 2.167,2.167 0 0 0 75,15.516 a 54.676,54.676 0 0 0 -2.887,6.441 2.194,2.194 0 0 0 1.444,2.887 49.917,49.917 0 0 0 12.66,1.666 46.753,46.753 0 0 0 12.993,-1.666 2.317,2.317 0 0 0 1.667,-2.887 z"
         transform="translate(-71.18,1.586)" />
      <path
         id="Path_249"
         d="M 90.685,12.438 A 2.344,2.344 0 0 0 92.35,8.884 C 88.8,3.776 85.687,0 85.687,0 v 0 c 0,0 -3.11,3.776 -6.552,9 a 2.233,2.233 0 0 0 1.665,3.438 c 1.444,0.111 3,0.222 4.775,0.222 1.889,0 3.555,-0.111 5.11,-0.222 z"
         transform="translate(-70.427)" />
      <path
         id="Path_250"
         d="M 101.844,30.37 A 2.277,2.277 0 0 0 99.068,27.705 55.105,55.105 0 0 1 86.408,29.149 53.61,53.61 0 0 1 74.081,27.705 2.311,2.311 0 0 0 71.3,30.37 c 1.444,7.33 7.552,12.1 15.214,12.1 7.779,-0.106 13.776,-4.77 15.33,-12.1 z"
         transform="translate(-71.259,3.057)" />
    </g>
  </g>
</svg>
