<svg xmlns="http://www.w3.org/2000/svg" width="76.622" height="75.899" viewBox="0 0 76.622 75.899">
  <g id="Group_40" data-name="Group 40" transform="translate(-61 -45)">
    <path id="Fill-1" d="M54.46,27.024a56.3,56.3,0,0,1-4.725,8.529c-2.357,3.419-7.018,10.167-16.676,13.9C41.213,44.319,43.809,41.315,46.643,37a33.173,33.173,0,0,0,5.52-13.5,104.708,104.708,0,0,0,1.2-13.309L49,10.15a55.9,55.9,0,0,1,.221,9.72c-.316,4.195-.942,12.546-7.724,20.676a34.342,34.342,0,0,1-9.8,8.394,42.184,42.184,0,0,1-11.814,4.282c10.344-.37,14.181-1.7,18.964-4.112a33.7,33.7,0,0,0,11.61-8.962,106.142,106.142,0,0,0,7.772-10.933L54.46,27.024" transform="translate(79.399 54.242)"/>
    <path id="Fill-29" d="M38.324,15.826a22.2,22.2,0,1,1-22.457,22.2,22.327,22.327,0,0,1,22.457-22.2ZM59,63.085a107.782,107.782,0,0,0,12.262-5.627L69.116,53.7A57.426,57.426,0,0,1,60.71,58.75c-3.8,1.808-11.317,5.387-21.669,3.77A24.825,24.825,0,0,0,59.812,50.244l0,.016c.016-.029.027-.052.043-.081.286-.495.547-1,.8-1.521,4.095-7.925,4.775-11.71,5.035-16.686a33.008,33.008,0,0,0-2.049-14.419A105.407,105.407,0,0,0,57.946,5.434l-3.8,2.125a56.375,56.375,0,0,1,5.11,8.308c1.818,3.727,5.4,11.092,3.84,21.222-.419-9.545-1.754-13.267-4.12-17.854A33.459,33.459,0,0,0,49.905,7.762,107.5,107.5,0,0,0,38.845.08L36.628,3.8a57.509,57.509,0,0,1,8.628,4.669c3.472,2.339,10.336,6.968,14.1,16.582L59.2,24.8c-.135-.208-.262-.422-.4-.625-4.878-7.431-7.851-9.9-12.072-12.608A34.011,34.011,0,0,0,33.064,6.114,108.391,108.391,0,0,0,19.6,4.928l-.039,4.315a57.887,57.887,0,0,1,9.834-.219c4.173.308,12.409.923,20.5,7.316-.024-.013-.051-.024-.077-.036-8.512-4.374-12.432-5.089-17.616-5.354a34.133,34.133,0,0,0-14.587,2.025A107.782,107.782,0,0,0,5.357,18.6l2.148,3.757a57.514,57.514,0,0,1,8.406-5.051c3.795-1.806,11.309-5.382,21.655-3.77-.635.019-1.271.04-1.893.1-8.368.5-11.947,1.792-16.292,3.984A33.715,33.715,0,0,0,7.772,26.589,105.922,105.922,0,0,0,0,37.52l3.761,2.192a56.492,56.492,0,0,1,4.725-8.527c2.347-3.4,6.978-10.1,16.544-13.846-.374.236-.74.479-1.1.733-7.2,4.664-9.666,7.574-12.352,11.669a33.159,33.159,0,0,0-5.52,13.5,104.731,104.731,0,0,0-1.2,13.309l4.366.04A56,56,0,0,1,9,46.868c.311-4.109.932-12.2,7.326-20.169-.045.084-.082.173-.125.257-4.3,8.221-5,12.065-5.271,17.132A33.02,33.02,0,0,0,12.982,58.5a105.406,105.406,0,0,0,5.693,12.119l3.8-2.123a56.545,56.545,0,0,1-5.109-8.308c-1.818-3.728-5.4-11.092-3.84-21.224.419,9.545,1.752,13.269,4.12,17.854A33.426,33.426,0,0,0,26.715,68.3a107.3,107.3,0,0,0,11.062,7.683l2.217-3.719a57.434,57.434,0,0,1-8.628-4.67c-3.472-2.338-10.333-6.967-14.1-16.575,5.211,8.1,8.252,10.668,12.631,13.473a33.983,33.983,0,0,0,13.658,5.455,108.561,108.561,0,0,0,13.467,1.188l.039-4.315a58.078,58.078,0,0,1-9.834.219c-4.175-.309-12.419-.925-20.517-7.325,8.575,4.413,12.5,5.133,17.7,5.4A34.141,34.141,0,0,0,59,63.085Z" transform="translate(61 44.92)"/>
  </g>
</svg>
